<svg width="148" height="14" viewBox="0 0 148 14" fill="none" xmlns="http://www.w3.org/2000/svg">
<path d="M2.5678 6.15934H6.27136C6.65543 6.14835 7.02304 6.09341 7.37419 5.99451C7.72535 5.8956 8.03809 5.75275 8.31243 5.56593C8.58677 5.37912 8.80624 5.14286 8.97084 4.85714C9.13544 4.56044 9.21774 4.20879 9.21774 3.8022C9.21774 3.47253 9.16287 3.19231 9.05314 2.96154C8.94341 2.71978 8.78978 2.52747 8.59225 2.38462C8.4057 2.23077 8.18075 2.12088 7.91738 2.05495C7.66499 1.98901 7.39066 1.95604 7.09437 1.95604H3.47311L2.5678 6.15934ZM2.55134 1H7.11083C7.54977 1 7.96128 1.04945 8.34535 1.14835C8.7404 1.23626 9.08606 1.39011 9.38235 1.60989C9.67863 1.81868 9.90907 2.09341 10.0737 2.43407C10.2493 2.77473 10.337 3.19231 10.337 3.68681C10.337 4.46703 10.1011 5.12088 9.62925 5.64835C9.16836 6.16484 8.55385 6.48901 7.7857 6.62088V6.65385C8.41119 6.73077 8.89951 7 9.25066 7.46154C9.61279 7.91209 9.79385 8.45055 9.79385 9.07692C9.79385 9.76923 9.66217 10.3516 9.39881 10.8242C9.13544 11.2967 8.78429 11.6758 8.34535 11.9615C7.91738 12.2473 7.41809 12.456 6.84747 12.5879C6.27684 12.7088 5.68428 12.7692 5.06976 12.7692H0L2.55134 1ZM1.33328 11.8132H5.31666C5.72268 11.8132 6.12322 11.7637 6.51826 11.6648C6.92428 11.5659 7.28641 11.4121 7.60464 11.2033C7.92287 10.9945 8.18075 10.7253 8.37827 10.3956C8.57579 10.0659 8.67455 9.67033 8.67455 9.20879C8.67455 8.78022 8.59774 8.43407 8.44411 8.17033C8.29048 7.8956 8.08199 7.68132 7.81862 7.52747C7.56623 7.36264 7.26995 7.25275 6.92977 7.1978C6.60056 7.14286 6.2549 7.11538 5.89277 7.11538H2.35382L1.33328 11.8132Z" fill="black"/>
<path d="M17.4642 12.7692H16.5095L16.8058 11.2198H16.7729C16.4546 11.7253 16.0267 12.1484 15.489 12.489C14.9622 12.8297 14.3806 13 13.7442 13C13.3711 13 13.0254 12.956 12.7072 12.8681C12.3999 12.7912 12.1311 12.6648 11.9006 12.489C11.6702 12.3022 11.4891 12.0659 11.3574 11.7802C11.2367 11.4835 11.1764 11.1319 11.1764 10.7253C11.1764 10.4945 11.2203 10.1593 11.3081 9.71978L12.4767 4.26374H13.5137L12.3286 9.75275C12.2957 9.88462 12.2682 10.0275 12.2463 10.1813C12.2244 10.3242 12.2134 10.467 12.2134 10.6099C12.2134 10.8846 12.2628 11.1209 12.3615 11.3187C12.4603 11.5165 12.592 11.6758 12.7566 11.7967C12.9212 11.9176 13.1077 12.0055 13.3162 12.0604C13.5357 12.1154 13.7606 12.1429 13.9911 12.1429C14.3752 12.1429 14.7373 12.0604 15.0775 11.8956C15.4286 11.7308 15.7468 11.5 16.0322 11.2033C16.3284 10.8956 16.5863 10.5275 16.8058 10.0989C17.0253 9.65934 17.1954 9.17033 17.3161 8.63187L18.2543 4.26374H19.2913L17.4642 12.7692Z" fill="black"/>
<path d="M21.9926 1H23.0296L22.6674 2.66484H21.6304L21.9926 1ZM21.2848 4.26374H22.3218L20.4947 12.7692H19.4742L21.2848 4.26374Z" fill="black"/>
<path d="M24.9813 1H26.0183L23.4834 12.7692H22.4628L24.9813 1Z" fill="black"/>
<path d="M26.3239 4.26374H27.8547L28.3979 1.69231H29.4349L28.8917 4.26374H30.5871L30.4225 5.13736H28.6942L27.5255 10.5934C27.4816 10.7912 27.4487 10.9451 27.4268 11.0549C27.4158 11.1538 27.4103 11.2692 27.4103 11.4011C27.4103 11.5549 27.4487 11.6923 27.5255 11.8132C27.6133 11.9341 27.756 11.9945 27.9535 11.9945C28.3595 11.9945 28.7655 11.9615 29.1716 11.8956L28.9905 12.7857C28.8149 12.8077 28.6393 12.8242 28.4638 12.8352C28.2882 12.8462 28.1126 12.8516 27.937 12.8516C27.7395 12.8516 27.5475 12.8352 27.3609 12.8022C27.1744 12.7802 27.0043 12.7253 26.8507 12.6374C26.708 12.5495 26.5928 12.4286 26.505 12.2747C26.4172 12.1099 26.3733 11.9011 26.3733 11.6484C26.3733 11.5604 26.3788 11.4396 26.3898 11.2857C26.4117 11.1319 26.4446 10.9615 26.4885 10.7747L27.6572 5.13736H26.1264L26.3239 4.26374Z" fill="black"/>
<path d="M38.7879 12.1429C39.3586 12.1429 39.8579 12 40.2858 11.7143C40.7248 11.4176 41.0869 11.044 41.3722 10.5934C41.6685 10.1429 41.888 9.64835 42.0306 9.10989C42.1842 8.57143 42.2611 8.05495 42.2611 7.56044C42.2611 6.76923 42.0526 6.12637 41.6356 5.63187C41.2186 5.13736 40.5931 4.89011 39.7591 4.89011C39.1885 4.89011 38.6837 5.03297 38.2448 5.31868C37.8058 5.59341 37.4382 5.95055 37.1419 6.39011C36.8456 6.81868 36.6207 7.3022 36.4671 7.84066C36.3134 8.36813 36.2366 8.87912 36.2366 9.37363C36.2366 10.1978 36.4451 10.8681 36.8621 11.3846C37.2791 11.8901 37.921 12.1429 38.7879 12.1429ZM39.9402 4.01648C40.434 4.01648 40.8839 4.09341 41.2899 4.24725C41.7069 4.39011 42.0635 4.6044 42.3598 4.89011C42.6561 5.17582 42.8866 5.52747 43.0512 5.94505C43.2158 6.35165 43.2981 6.81868 43.2981 7.34615C43.2981 8.06044 43.1993 8.75824 43.0018 9.43956C42.8043 10.1209 42.508 10.7253 42.1129 11.2527C41.7288 11.7802 41.2405 12.2033 40.648 12.522C40.0664 12.8407 39.3805 13 38.5904 13C37.4931 13 36.6536 12.6813 36.072 12.044C35.4904 11.4066 35.1996 10.5495 35.1996 9.47253C35.1996 8.78022 35.3039 8.1044 35.5124 7.44505C35.7209 6.78571 36.0281 6.2033 36.4341 5.6978C36.8402 5.19231 37.334 4.78571 37.9156 4.47802C38.5081 4.17033 39.183 4.01648 39.9402 4.01648Z" fill="black"/>
<path d="M45.7122 4.26374H46.6669L46.3706 5.81319H46.4035C46.7217 5.30769 47.1442 4.88462 47.671 4.54396C48.2087 4.19231 48.7957 4.01648 49.4322 4.01648C49.8053 4.01648 50.1455 4.06044 50.4527 4.14835C50.771 4.23626 51.0453 4.37363 51.2758 4.56044C51.5062 4.73626 51.6818 4.97253 51.8025 5.26923C51.9342 5.55495 52 5.9011 52 6.30769C52 6.53846 51.9561 6.87363 51.8683 7.31319L50.6996 12.7692H49.6626L50.8478 7.28022C50.8807 7.14835 50.9081 7.01099 50.9301 6.86813C50.952 6.71429 50.963 6.56593 50.963 6.42308C50.963 6.13736 50.9136 5.9011 50.8149 5.71429C50.7161 5.51648 50.5844 5.35714 50.4198 5.23626C50.2552 5.11538 50.0632 5.02747 49.8437 4.97253C49.6352 4.91758 49.4157 4.89011 49.1853 4.89011C48.8122 4.89011 48.4501 4.97253 48.0989 5.13736C47.7478 5.3022 47.424 5.53846 47.1278 5.84615C46.8315 6.14286 46.5736 6.51099 46.3541 6.95055C46.1347 7.37912 45.9701 7.86264 45.8603 8.4011L44.9221 12.7692H43.9016L45.7122 4.26374Z" fill="black"/>
<g clip-path="url(#clip0_504_334)">
<path d="M75.4194 10.4611L73.0265 12.8361C72.9752 12.8873 72.9117 12.9286 72.8428 12.9573C72.7726 12.9861 72.6983 12.9998 72.6214 12.9998H61.2779C61.2239 12.9998 61.1713 12.9848 61.1253 12.9573C61.0794 12.9298 61.0443 12.8911 61.0227 12.8448C61.0011 12.7986 60.9944 12.7486 61.0038 12.6986C61.0133 12.6486 61.0376 12.6036 61.074 12.5661L63.4642 10.1911C63.5156 10.1398 63.579 10.0986 63.6479 10.0698C63.7181 10.0411 63.7924 10.0273 63.8694 10.0273H75.2128C75.2668 10.0273 75.3208 10.0398 75.3667 10.0673C75.4127 10.0948 75.4491 10.1336 75.4707 10.1798C75.4923 10.2261 75.4991 10.2773 75.4896 10.3273C75.4802 10.3773 75.4559 10.4236 75.4181 10.4598L75.4194 10.4611ZM73.0265 5.67733C72.9752 5.62608 72.9117 5.58483 72.8428 5.55733C72.7726 5.52858 72.6983 5.51483 72.6214 5.51358H61.2779C61.2239 5.51358 61.1713 5.52858 61.1253 5.55608C61.0794 5.58358 61.0443 5.62233 61.0227 5.66858C61.0011 5.71483 60.9944 5.76483 61.0038 5.81483C61.0133 5.86483 61.0376 5.90983 61.074 5.94733L63.4642 8.32358C63.5156 8.37483 63.579 8.41608 63.6479 8.44358C63.7181 8.47233 63.7924 8.48608 63.8694 8.48733H75.2128C75.2668 8.48733 75.3195 8.47233 75.364 8.44483C75.4086 8.41733 75.4451 8.37858 75.4653 8.33233C75.4869 8.28608 75.4937 8.23608 75.4842 8.18608C75.4748 8.13733 75.4505 8.09108 75.414 8.05483L73.0251 5.67858L73.0265 5.67733ZM61.2779 3.97108H72.6214C72.697 3.97108 72.7726 3.95608 72.8428 3.92858C72.913 3.89983 72.9752 3.85983 73.0265 3.80733L75.4194 1.43233C75.4572 1.39608 75.4815 1.34983 75.491 1.29983C75.5004 1.24983 75.4937 1.19858 75.4721 1.15233C75.4505 1.10608 75.414 1.06733 75.3681 1.03983C75.3222 1.01233 75.2682 0.998584 75.2141 0.999834H63.8694C63.7937 0.999834 63.7181 1.01483 63.6479 1.04233C63.5777 1.07108 63.5156 1.11108 63.4642 1.16358L61.074 3.53858C61.0376 3.57483 61.0133 3.62108 61.0038 3.67108C60.9944 3.71983 61.0011 3.77108 61.0227 3.81733C61.0443 3.86358 61.0794 3.90233 61.1253 3.92983C61.1713 3.95733 61.2239 3.97233 61.2779 3.97233V3.97108Z" fill="url(#paint0_linear_504_334)"/>
<path d="M89.2491 6.07502H83.1804V4.22502H90.8264V2.37502H83.1601C82.8982 2.37377 82.6389 2.42002 82.3958 2.51127C82.1527 2.60252 81.9326 2.73752 81.7463 2.90877C81.5599 3.07877 81.4114 3.28252 81.3101 3.50502C81.2088 3.72877 81.1548 3.96877 81.1548 4.21127V6.08627C81.1548 6.32877 81.2088 6.56877 81.3101 6.79252C81.4114 7.01627 81.5599 7.22002 81.7463 7.39002C81.9326 7.56127 82.1527 7.69627 82.3958 7.78752C82.6389 7.87877 82.8982 7.92627 83.1601 7.92502H89.237V9.77502H81.2993V11.625H89.2491C89.5111 11.6263 89.7704 11.58 90.0135 11.4888C90.2565 11.3975 90.4766 11.2625 90.663 11.0913C90.8494 10.9213 90.9979 10.7175 91.0992 10.495C91.2005 10.2713 91.2545 10.0313 91.2545 9.78877V7.91377C91.2545 7.67127 91.2005 7.43127 91.0992 7.20752C90.9979 6.98377 90.8494 6.78002 90.663 6.61002C90.4766 6.43877 90.2565 6.30377 90.0135 6.21252C89.7704 6.12127 89.5111 6.07377 89.2491 6.07502Z" fill="black"/>
<path d="M101.006 2.37497H94.9141C94.6521 2.37247 94.3915 2.41872 94.1484 2.50997C93.9053 2.60122 93.6839 2.73622 93.4975 2.90622C93.3111 3.07622 93.1626 3.27997 93.06 3.50372C92.9587 3.72747 92.9047 3.96747 92.9033 4.21122V9.78872C92.9033 10.0312 92.9573 10.2712 93.06 10.4962C93.1612 10.72 93.3098 10.9225 93.4975 11.0937C93.6839 11.2637 93.9053 11.3987 94.1484 11.49C94.3915 11.5812 94.6521 11.6275 94.9141 11.625H101.006C101.268 11.6262 101.527 11.58 101.77 11.4887C102.013 11.3975 102.233 11.2625 102.42 11.0912C102.606 10.9212 102.755 10.7175 102.856 10.495C102.957 10.2712 103.01 10.0312 103.011 9.78872V4.21122C103.01 3.96872 102.957 3.72872 102.856 3.50497C102.755 3.28122 102.606 3.07872 102.42 2.90872C102.233 2.73872 102.013 2.60372 101.77 2.51122C101.527 2.41997 101.268 2.37372 101.006 2.37497ZM100.991 9.77497H94.9289V4.22497H100.988L100.991 9.77497Z" fill="black"/>
<path d="M122.342 2.37497H116.4C116.139 2.37372 115.879 2.41997 115.636 2.51122C115.393 2.60247 115.173 2.73747 114.987 2.90872C114.8 3.07872 114.652 3.28247 114.55 3.50497C114.449 3.72872 114.396 3.96872 114.395 4.21122V11.625H116.421V8.58622H122.336V11.625H124.361V4.21122C124.36 3.96747 124.306 3.72747 124.205 3.50247C124.102 3.27872 123.953 3.07497 123.766 2.90372C123.578 2.73247 123.355 2.59872 123.112 2.50747C122.868 2.41622 122.607 2.37122 122.344 2.37497H122.342ZM122.327 6.73622H116.413V4.22497H122.327V6.73622Z" fill="black"/>
<path d="M145.995 2.37502H140.053C139.791 2.37377 139.532 2.42002 139.289 2.51127C139.045 2.60252 138.825 2.73752 138.639 2.90877C138.453 3.07877 138.304 3.28252 138.203 3.50502C138.102 3.72877 138.047 3.96877 138.046 4.21127V11.625H140.072V8.58627H145.973V11.625H147.999V4.21127C147.997 3.96877 147.945 3.72877 147.842 3.50502C147.741 3.28127 147.592 3.07877 147.406 2.90877C147.219 2.73877 146.999 2.60377 146.756 2.51127C146.513 2.42002 146.254 2.37377 145.992 2.37502H145.995ZM145.974 6.73627H140.06V4.22502H145.974V6.73627Z" fill="black"/>
<path d="M134.226 9.775H133.416L130.519 3.15C130.42 2.92125 130.249 2.725 130.029 2.5875C129.809 2.45 129.548 2.375 129.282 2.375H127.485C127.31 2.375 127.136 2.405 126.976 2.46625C126.813 2.5275 126.666 2.6175 126.542 2.73125C126.418 2.845 126.319 2.98 126.252 3.12875C126.184 3.2775 126.149 3.4375 126.148 3.6V11.625H128.173V4.225H128.984L131.879 10.85C131.98 11.0775 132.152 11.2737 132.373 11.41C132.595 11.5475 132.855 11.62 133.121 11.62H134.919C135.093 11.62 135.267 11.59 135.428 11.5288C135.59 11.4675 135.737 11.3775 135.861 11.2638C135.985 11.15 136.084 11.015 136.152 10.8663C136.219 10.7175 136.254 10.5575 136.256 10.395V2.375H134.226V9.775Z" fill="black"/>
<path d="M106.826 2.375H104.8V9.78875C104.8 10.0312 104.854 10.2725 104.957 10.4963C105.06 10.72 105.208 10.9237 105.395 11.0938C105.581 11.2638 105.802 11.3987 106.047 11.49C106.29 11.5812 106.551 11.6275 106.813 11.625H112.889V9.775H106.826V2.375Z" fill="black"/>
</g>
<defs>
<linearGradient id="paint0_linear_504_334" x1="62.2232" y1="13.2861" x2="73.1004" y2="0.0383607" gradientUnits="userSpaceOnUse">
<stop offset="0.08" stop-color="#9945FF"/>
<stop offset="0.3" stop-color="#8752F3"/>
<stop offset="0.5" stop-color="#5497D5"/>
<stop offset="0.6" stop-color="#43B4CA"/>
<stop offset="0.72" stop-color="#28E0B9"/>
<stop offset="0.97" stop-color="#19FB9B"/>
</linearGradient>
<clipPath id="clip0_504_334">
<rect width="87" height="12" fill="white" transform="translate(61 1)"/>
</clipPath>
</defs>
</svg>
