<svg width="40" height="40" viewBox="0 0 40 40" fill="none" xmlns="http://www.w3.org/2000/svg">
<path d="M12.2349 31.9972C12.8915 31.123 13.4701 30.1948 13.9705 29.2267C13.0246 28.8793 12.1105 28.4494 11.2397 27.9426C11.4683 27.7746 11.6881 27.6037 11.8993 27.4329C17.0281 29.819 22.9699 29.819 28.0987 27.4329C28.3157 27.6094 28.5413 27.7803 28.7669 27.9454C27.8962 28.4551 26.9792 28.885 26.0304 29.2353C26.5279 30.2033 27.1094 31.1287 27.766 32C30.6819 31.1287 33.4214 29.7677 35.8657 27.9767C36.5253 21.1631 34.726 15.2493 31.1043 10.0074C29.0041 9.05635 26.7825 8.38154 24.503 8C24.2137 8.49828 23.8869 9.1674 23.6583 9.70839C21.2342 9.35247 18.7667 9.35247 16.3426 9.70839C16.0822 9.12469 15.7929 8.55523 15.4747 8C13.1924 8.38154 10.9707 9.0592 8.86769 10.0159C4.70213 16.1291 3.57106 22.097 4.13515 27.9739C6.57953 29.762 9.31896 31.123 12.2349 31.9972ZM25.313 18.0083C26.9214 18.0083 28.2057 19.432 28.1884 21.1831C28.171 22.9342 26.9214 24.3635 25.313 24.3635C23.7046 24.3635 22.4376 22.9399 22.4376 21.1916C22.4376 19.4434 23.7046 18.0083 25.313 18.0083ZM14.6821 18.0083C16.2905 18.0083 17.5749 19.432 17.5604 21.1831C17.5459 22.9342 16.2905 24.3635 14.6821 24.3635C13.0738 24.3635 11.8067 22.9399 11.8067 21.1916C11.8067 19.4434 13.0738 18.0083 14.6821 18.0083Z" fill="white"/>
</svg>
