<svg width="40" height="40" viewBox="0 0 40 40" fill="none" xmlns="http://www.w3.org/2000/svg">
<g clip-path="url(#clip0_114_587)">
<path d="M20 6.91678C24.2667 6.91678 24.7667 6.91678 26.45 7.01678C28 7.08345 28.85 7.35011 29.4167 7.56678C30.1667 7.85011 30.7 8.20011 31.25 8.76678C31.8167 9.33345 32.15 9.85011 32.45 10.6001C32.6667 11.1668 32.9333 12.0001 33 13.5668C33.0833 15.2501 33.1 15.7501 33.1 20.0168C33.1 24.2834 33.1 24.7834 33 26.4668C32.9333 28.0168 32.6667 28.8668 32.45 29.4334C32.1667 30.1834 31.8167 30.7168 31.25 31.2668C30.6833 31.8334 30.1667 32.1668 29.4167 32.4668C28.85 32.6834 28.0167 32.9501 26.45 33.0168C24.7667 33.1001 24.2667 33.1168 20 33.1168C15.7333 33.1168 15.2333 33.1168 13.55 33.0168C12 32.9501 11.15 32.6834 10.5833 32.4668C9.83333 32.1834 9.3 31.8334 8.75 31.2668C8.18333 30.7001 7.85 30.1834 7.55 29.4334C7.33333 28.8668 7.06667 28.0334 7 26.4668C6.91667 24.7834 6.9 24.2834 6.9 20.0168C6.9 15.7501 6.9 15.2501 7 13.5668C7.06667 12.0168 7.33333 11.1668 7.55 10.6001C7.83333 9.85011 8.18333 9.31678 8.75 8.76678C9.31667 8.20011 9.83333 7.86678 10.5833 7.56678C11.15 7.35011 11.9833 7.08345 13.55 7.01678C15.2333 6.93345 15.7333 6.91678 20 6.91678ZM20 4.03345C15.6667 4.03345 15.1167 4.05011 13.4167 4.13345C11.7167 4.21678 10.55 4.48345 9.55 4.88345C8.5 5.28345 7.61667 5.83345 6.71667 6.71678C5.83333 7.60011 5.28333 8.50011 4.88333 9.55011C4.48333 10.5668 4.21667 11.7334 4.13333 13.4168C4.05 15.1168 4.03333 15.6668 4.03333 20.0001C4.03333 24.3334 4.05 24.8834 4.13333 26.5834C4.21667 28.2834 4.48333 29.4501 4.88333 30.4501C5.28333 31.5001 5.83333 32.3834 6.71667 33.2834C7.6 34.1668 8.5 34.7168 9.55 35.1168C10.5667 35.5168 11.7333 35.7834 13.4167 35.8668C15.1167 35.9501 15.6667 35.9668 20 35.9668C24.3333 35.9668 24.8833 35.9501 26.5833 35.8668C28.2833 35.7834 29.45 35.5168 30.45 35.1168C31.5 34.7168 32.3833 34.1668 33.2833 33.2834C34.1667 32.4001 34.7167 31.5001 35.1167 30.4501C35.5167 29.4334 35.7833 28.2668 35.8667 26.5834C35.95 24.8834 35.9667 24.3334 35.9667 20.0001C35.9667 15.6668 35.95 15.1168 35.8667 13.4168C35.7833 11.7168 35.5167 10.5501 35.1167 9.55011C34.7167 8.50011 34.1667 7.61678 33.2833 6.71678C32.4 5.83345 31.5 5.28345 30.45 4.88345C29.4333 4.48345 28.2667 4.21678 26.5833 4.13345C24.8833 4.05011 24.3333 4.03345 20 4.03345Z" fill="white"/>
<path d="M20 11.8C15.4667 11.8 11.8 15.4667 11.8 20C11.8 24.5334 15.4667 28.2 20 28.2C24.5333 28.2 28.2 24.5334 28.2 20C28.2 15.4667 24.5333 11.8 20 11.8ZM20 25.3167C17.0667 25.3167 14.6833 22.9334 14.6833 20C14.6833 17.0667 17.0667 14.6834 20 14.6834C22.9333 14.6834 25.3167 17.0667 25.3167 20C25.3167 22.9334 22.9333 25.3167 20 25.3167Z" fill="white"/>
<path d="M28.5167 13.4002C29.5752 13.4002 30.4333 12.5421 30.4333 11.4836C30.4333 10.425 29.5752 9.56689 28.5167 9.56689C27.4581 9.56689 26.6 10.425 26.6 11.4836C26.6 12.5421 27.4581 13.4002 28.5167 13.4002Z" fill="white"/>
</g>
<defs>
<clipPath id="clip0_114_587">
<rect width="40" height="40" fill="white"/>
</clipPath>
</defs>
</svg>
