<svg width="218" height="37" viewBox="0 0 218 37" fill="none" xmlns="http://www.w3.org/2000/svg">
<path d="M93.4566 7.39468H93.8786C98.6615 7.39468 103.444 7.39468 108.227 7.38876C108.5 7.38876 108.649 7.48042 108.796 7.70513C110.018 9.60332 111.255 11.4926 112.486 13.3849C112.556 13.4943 112.626 13.6008 112.726 13.7516C112.808 13.6333 112.872 13.5446 112.934 13.45C114.191 11.5222 115.448 9.59445 116.697 7.66078C116.823 7.46268 116.958 7.38876 117.189 7.38876C121.993 7.39468 126.799 7.39468 131.602 7.39468C131.708 7.39468 131.81 7.40355 131.989 7.41242C125.556 17.2966 119.153 27.1335 112.729 37C106.305 27.1335 99.9012 17.2966 93.4566 7.39468Z" fill="white"/>
<path d="M76.6345 29.5787V7.42426H92.1788V29.5787H76.6345Z" fill="white"/>
<path d="M47.3247 18.5059H35.8657V7.42426H74.3456V18.4882H62.8984V29.5787H47.3247V18.5059Z" fill="white"/>
<path d="M19.2693 0C25.7021 9.88421 32.0998 19.7093 38.5238 29.5758C38.4037 29.5846 38.3158 29.5994 38.2279 29.5994C33.3805 29.5994 28.5302 29.5994 23.6829 29.6053C23.466 29.6053 23.3576 29.5225 23.2462 29.351C22.0007 27.4262 20.7492 25.5103 19.5008 23.5885C19.4363 23.4879 19.3689 23.3904 19.2722 23.2514C19.1931 23.3667 19.1286 23.4554 19.067 23.55C17.8039 25.4867 16.5408 27.4233 15.2835 29.3658C15.178 29.5284 15.0725 29.6024 14.8732 29.6024C10.0024 29.5964 5.13456 29.5964 0.263762 29.5964H0C6.43285 19.7211 12.8335 9.88421 19.2693 0Z" fill="white"/>
<path d="M137.92 8.16112H140.618L143.643 25.9773L154.327 8.16112H157.025L152.855 28.0062H151.029L155.036 10.0511H154.981L144.216 28.0062H142.362L139.228 9.77319H139.173L135.494 28.0062H133.695L137.92 8.16112Z" fill="white"/>
<path d="M160.938 8.16112H162.791L160.202 20.7797C160.075 21.28 160.011 21.8544 160.011 22.503C159.975 23.2256 160.084 23.8556 160.338 24.393C160.593 24.9303 160.956 25.3843 161.429 25.7549C161.901 26.107 162.473 26.3756 163.146 26.5609C163.818 26.7277 164.545 26.8111 165.326 26.8111C167.088 26.8111 168.488 26.3664 169.523 25.477C170.577 24.569 171.277 23.2719 171.622 21.5858L174.375 8.16112H176.228L173.448 21.7247C172.975 24.0595 172.012 25.7549 170.559 26.8111C169.123 27.8673 167.297 28.3954 165.081 28.3954C164.227 28.3954 163.382 28.2935 162.546 28.0896C161.728 27.8858 160.993 27.5615 160.338 27.1168C159.684 26.6721 159.157 26.0884 158.758 25.3658C158.358 24.6431 158.158 23.763 158.158 22.7253C158.158 22.2806 158.213 21.7433 158.322 21.1133L160.938 8.16112Z" fill="white"/>
<path d="M190.73 13.9423C190.73 13.0714 190.612 12.3488 190.376 11.7744C190.158 11.1814 189.831 10.7089 189.395 10.3569C188.959 9.98627 188.423 9.72686 187.787 9.57862C187.151 9.43039 186.415 9.35627 185.579 9.35627C184.979 9.35627 184.38 9.43039 183.78 9.57862C183.199 9.72686 182.672 9.96775 182.199 10.3013C181.727 10.6163 181.345 11.0239 181.055 11.5242C180.764 12.0245 180.619 12.6267 180.619 13.3309C180.619 13.8497 180.709 14.2944 180.891 14.665C181.091 15.017 181.336 15.3228 181.627 15.5822C181.936 15.8231 182.29 16.0269 182.69 16.1937C183.09 16.3419 183.489 16.4809 183.889 16.6106L185.961 17.2499C186.633 17.4537 187.278 17.676 187.896 17.9169C188.532 18.1578 189.095 18.4635 189.585 18.8341C190.076 19.2047 190.467 19.668 190.757 20.2238C191.048 20.7797 191.193 21.4746 191.193 22.3084C191.193 22.8087 191.093 23.4109 190.894 24.115C190.712 24.8006 190.348 25.4677 189.803 26.1162C189.258 26.7462 188.495 27.2836 187.514 27.7283C186.533 28.173 185.252 28.3954 183.671 28.3954C182.581 28.3954 181.573 28.2657 180.646 28.0062C179.737 27.7283 178.947 27.3114 178.275 26.7555C177.621 26.1811 177.121 25.4584 176.776 24.5875C176.43 23.7167 176.285 22.679 176.34 21.4746H178.193C178.138 22.4381 178.229 23.2627 178.465 23.9483C178.72 24.6153 179.092 25.162 179.583 25.5881C180.092 26.0143 180.7 26.3293 181.409 26.5331C182.136 26.7184 182.935 26.8111 183.807 26.8111C184.443 26.8111 185.088 26.7277 185.742 26.5609C186.397 26.3942 186.987 26.144 187.514 25.8105C188.059 25.4584 188.495 25.0137 188.822 24.4764C189.167 23.939 189.34 23.2997 189.34 22.5586C189.34 21.8544 189.186 21.2893 188.877 20.8631C188.586 20.4184 188.204 20.0571 187.732 19.7791C187.26 19.5012 186.742 19.2788 186.179 19.1121C185.615 18.9453 185.061 18.7785 184.516 18.6118L182.608 18.0281C181.463 17.6946 180.537 17.1665 179.828 16.4438C179.12 15.7026 178.765 14.6928 178.765 13.4142C178.765 12.4136 178.956 11.5613 179.338 10.8572C179.737 10.1345 180.255 9.55083 180.891 9.10612C181.545 8.64288 182.281 8.30009 183.099 8.07773C183.935 7.85538 184.789 7.7442 185.661 7.7442C186.642 7.7442 187.569 7.85538 188.441 8.07773C189.313 8.28156 190.058 8.63362 190.676 9.13392C191.311 9.61568 191.802 10.255 192.147 11.0517C192.493 11.83 192.638 12.7935 192.583 13.9423H190.73Z" fill="white"/>
<path d="M197.459 8.16112H199.312L195.197 28.0062H193.343L197.459 8.16112Z" fill="white"/>
<path d="M216.147 14.4426C216.11 12.7564 215.602 11.4872 214.62 10.6348C213.657 9.78245 212.358 9.35627 210.723 9.35627C209.251 9.35627 207.97 9.67127 206.88 10.3013C205.808 10.9128 204.909 11.7281 204.182 12.7472C203.455 13.7478 202.91 14.8966 202.547 16.1937C202.201 17.4722 202.029 18.7878 202.029 20.1405C202.029 21.1596 202.174 22.0768 202.465 22.8921C202.756 23.7074 203.173 24.4115 203.719 25.0045C204.282 25.5789 204.963 26.0236 205.763 26.3386C206.562 26.6536 207.462 26.8111 208.461 26.8111C209.224 26.8111 209.951 26.6814 210.641 26.422C211.35 26.1626 211.986 25.792 212.549 25.3102C213.131 24.8284 213.63 24.2447 214.048 23.5592C214.484 22.855 214.82 22.0768 215.056 21.2244H216.91C216.692 22.2436 216.347 23.1978 215.874 24.0872C215.402 24.9581 214.802 25.7178 214.075 26.3664C213.349 26.9964 212.495 27.4967 211.513 27.8673C210.532 28.2193 209.415 28.3954 208.161 28.3954C206.889 28.3954 205.754 28.1915 204.754 27.7839C203.773 27.3762 202.937 26.8111 202.247 26.0884C201.575 25.3473 201.057 24.4578 200.693 23.4202C200.348 22.3825 200.175 21.2337 200.175 19.9737C200.175 18.3802 200.412 16.8515 200.884 15.3876C201.357 13.9238 202.047 12.6267 202.955 11.4964C203.864 10.3476 204.972 9.43965 206.281 8.77259C207.589 8.087 209.079 7.7442 210.75 7.7442C211.768 7.7442 212.713 7.89244 213.585 8.18891C214.475 8.46685 215.238 8.88377 215.874 9.43965C216.528 9.99554 217.037 10.6904 217.4 11.5242C217.782 12.3581 217.982 13.3309 218 14.4426H216.147Z" fill="white"/>
</svg>
