<?xml version="1.0" encoding="utf-8"?>
<!-- Generator: Adobe Illustrator 26.3.1, SVG Export Plug-In . SVG Version: 6.00 Build 0)  -->
<svg version="1.1" id="레이어_1" xmlns="http://www.w3.org/2000/svg" xmlns:xlink="http://www.w3.org/1999/xlink" x="0px"
	 y="0px" viewBox="0 0 144 38" style="enable-background:new 0 0 144 38;" xml:space="preserve">
<style type="text/css">
	.st0{fill:#231F20;}
</style>
<g>
	<path class="st0" d="M48.7,22.7c0.9,1.2,2,2,3.2,2.4c-0.5,1.5-1.3,3.1-2.5,4.8c-1.7,2.5-3.5,3.7-5.2,3.7c-0.6,0-1.6-0.2-2.8-0.6
		c-1.2-0.4-2.2-0.6-3-0.6c-0.9,0-1.8,0.2-2.9,0.6c-1.1,0.4-2,0.6-2.7,0.6c-2,0-4-1.6-6-4.9c-2-3.2-3-6.4-3-9.6
		c0-2.9,0.7-5.3,2.2-7.1s3.4-2.8,5.7-2.8c0.5,0,1.1,0.1,1.7,0.2c0.7,0.1,1.3,0.4,1.9,0.7c0.7,0.4,1.3,0.6,1.7,0.8
		c0.5,0.1,0.8,0.2,1.1,0.2s0.7-0.1,1.4-0.2c0.6-0.1,1.3-0.4,1.8-0.7s1.1-0.6,1.7-0.8c0.5-0.2,1-0.3,1.5-0.3c1.6,0,3,0.4,4.3,1.2
		c0.7,0.4,1.4,1.1,2.1,1.9c-1,0.9-1.8,1.6-2.3,2.3c-0.9,1.2-1.3,2.5-1.3,3.9C47.3,20,47.8,21.5,48.7,22.7z M41.9,7.7
		c-0.8,0.7-1.5,1.2-2.2,1.4c-0.3,0.1-0.6,0.1-0.9,0.2c-0.4,0.1-0.8,0.1-1.2,0.1c0-1.9,0.5-3.5,1.6-4.9c1-1.4,2.7-2.3,5-2.8
		c0,0.2,0.1,0.4,0.1,0.5v0.4c0,0.8-0.2,1.6-0.6,2.6C43.4,6,42.7,6.9,41.9,7.7L41.9,7.7z"/>
	<g>
		<path d="M59.7,11.8h-3.1V4.5h3.1c0.5,0,0.8,0.1,1.1,0.2c0.5,0.2,0.9,0.5,1.2,0.9s0.4,0.8,0.5,1.2c0.1,0.4,0.2,0.8,0.2,1.2
			c0,1-0.2,1.8-0.6,2.5C61.6,11.4,60.8,11.8,59.7,11.8z M60.8,6.4c-0.2-0.4-0.7-0.6-1.4-0.6H58v4.8h1.4c0.7,0,1.2-0.4,1.5-1.1
			c0.2-0.4,0.2-0.9,0.2-1.4C61.1,7.4,61,6.8,60.8,6.4z"/>
		<path d="M68.2,7.1c0.5,0.6,0.7,1.2,0.7,2s-0.2,1.5-0.7,2c-0.5,0.6-1.1,0.8-2.1,0.8c-0.9,0-1.6-0.3-2.1-0.8c-0.5-0.6-0.7-1.2-0.7-2
			s0.2-1.5,0.7-2c0.5-0.6,1.1-0.9,2.1-0.9C67.1,6.3,67.8,6.5,68.2,7.1z M66.1,7.4c-0.4,0-0.7,0.1-1,0.4c-0.2,0.3-0.3,0.7-0.3,1.2
			s0.1,1,0.3,1.3c0.2,0.3,0.5,0.4,1,0.4c0.4,0,0.7-0.1,0.9-0.4c0.2-0.3,0.3-0.7,0.3-1.3c0-0.5-0.1-1-0.3-1.2
			C66.9,7.6,66.5,7.4,66.1,7.4z"/>
		<path d="M74,11.8l-0.8-3.9l-0.9,3.9h-1.5l-1.5-5.4h1.5l0.8,3.9l0.8-3.9h1.4l0.8,3.9l0.8-3.9h1.5l-1.6,5.4H74z"/>
		<path d="M80.3,7.5c-0.5,0-0.8,0.2-1,0.6c-0.1,0.2-0.1,0.5-0.1,0.8v2.9h-1.4V6.4h1.4v0.8c0.2-0.3,0.4-0.5,0.5-0.6
			c0.3-0.2,0.7-0.3,1.1-0.3c0.6,0,1,0.1,1.4,0.4c0.3,0.3,0.4,0.8,0.4,1.5v3.6h-1.4V8.5c0-0.3,0-0.5-0.1-0.7
			C81,7.6,80.7,7.5,80.3,7.5z"/>
		<path d="M84,4.5h1.4v7.3H84V4.5z"/>
		<path d="M91.3,7.1c0.5,0.6,0.7,1.2,0.7,2s-0.2,1.5-0.7,2c-0.5,0.6-1.1,0.8-2.1,0.8c-0.9,0-1.6-0.3-2.1-0.8c-0.5-0.6-0.7-1.2-0.7-2
			s0.2-1.5,0.7-2c0.5-0.6,1.1-0.9,2.1-0.9C90.1,6.3,90.8,6.5,91.3,7.1z M89.2,7.4c-0.4,0-0.7,0.1-1,0.4C88,8.1,87.9,8.5,87.9,9
			s0.1,1,0.3,1.3c0.2,0.3,0.5,0.4,1,0.4c0.4,0,0.7-0.1,0.9-0.4c0.2-0.3,0.3-0.7,0.3-1.3c0-0.5-0.1-1-0.3-1.2
			C89.9,7.6,89.6,7.4,89.2,7.4z"/>
		<path d="M93.1,7c0.4-0.5,1-0.7,1.9-0.7c0.6,0,1.1,0.1,1.6,0.4c0.5,0.2,0.7,0.7,0.7,1.3v2.5c0,0.2,0,0.4,0,0.6c0,0.2,0,0.3,0.1,0.4
			c0,0.1,0.1,0.1,0.2,0.2v0.2h-1.5c0-0.1-0.1-0.2-0.1-0.3s0-0.2,0-0.3c-0.2,0.2-0.4,0.4-0.7,0.5c-0.3,0.2-0.6,0.3-1,0.3
			c-0.5,0-0.9-0.1-1.2-0.4c-0.3-0.3-0.5-0.7-0.5-1.2c0-0.7,0.3-1.1,0.8-1.4c0.2-0.3,0.6-0.4,1.2-0.5l0.5-0.1c0.3,0,0.4-0.1,0.6-0.1
			C95.9,8.3,96,8.2,96,8c0-0.2-0.1-0.4-0.2-0.5c-0.2-0.1-0.4-0.1-0.7-0.1c-0.3,0-0.6,0.1-0.7,0.2s-0.2,0.3-0.2,0.5h-1.4
			C92.8,7.7,92.9,7.3,93.1,7z M94.2,10.8c0.1,0.1,0.3,0.2,0.5,0.2c0.3,0,0.6-0.1,0.8-0.3c0.3-0.2,0.4-0.5,0.4-1V9.2
			c-0.1,0.1-0.2,0.1-0.3,0.1c-0.1,0-0.2,0.1-0.4,0.1l-0.3,0.1c-0.3,0.1-0.5,0.1-0.6,0.2C94.1,9.8,94,10,94,10.3
			C94,10.5,94.1,10.7,94.2,10.8z"/>
		<path d="M103.5,4.5v7.3h-1.4v-0.7c-0.2,0.3-0.4,0.6-0.7,0.7c-0.3,0.1-0.6,0.2-1,0.2c-0.6,0-1.2-0.3-1.6-0.8s-0.6-1.2-0.6-2
			c0-0.9,0.2-1.6,0.6-2.2c0.4-0.5,1-0.8,1.7-0.8c0.3,0,0.6,0.1,0.9,0.2s0.5,0.3,0.6,0.6V4.5H103.5z M99.7,9.2c0,0.5,0.1,0.9,0.3,1.2
			c0.2,0.3,0.5,0.5,0.9,0.5s0.7-0.1,0.9-0.4c0.2-0.3,0.3-0.7,0.3-1.2c0-0.7-0.2-1.1-0.5-1.4c-0.2-0.2-0.4-0.3-0.7-0.3
			c-0.4,0-0.7,0.2-0.9,0.5C99.8,8.3,99.7,8.7,99.7,9.2z"/>
		<path d="M110.1,4.5v1.1c-0.1,0-0.2,0-0.4,0c-0.2,0-0.3,0-0.4,0.1s-0.1,0.2-0.1,0.3v0.5h0.9v1h-0.9v4.3h-1.4V7.5H107v-1h0.8V6.1
			c0-0.6,0.1-1,0.3-1.2c0.2-0.3,0.7-0.5,1.5-0.5c0.1,0,0.2,0,0.2,0S110,4.5,110.1,4.5z"/>
		<path d="M115.4,7.1c0.5,0.6,0.7,1.2,0.7,2s-0.2,1.5-0.7,2c-0.5,0.6-1.1,0.8-2.1,0.8s-1.6-0.3-2.1-0.8c-0.5-0.6-0.7-1.2-0.7-2
			s0.2-1.5,0.7-2c0.5-0.6,1.1-0.9,2.1-0.9S115,6.5,115.4,7.1z M113.3,7.4c-0.4,0-0.7,0.1-1,0.4C112.1,8.1,112,8.5,112,9
			s0.1,1,0.3,1.3c0.2,0.3,0.5,0.4,1,0.4c0.4,0,0.7-0.1,0.9-0.4c0.2-0.3,0.3-0.7,0.3-1.3c0-0.5-0.1-1-0.3-1.2
			C114.1,7.6,113.8,7.4,113.3,7.4z"/>
		<path d="M119.8,7.7c-0.6,0-0.9,0.2-1.1,0.6c-0.1,0.2-0.2,0.5-0.2,1v2.6h-1.4V6.4h1.3v0.9c0.2-0.4,0.4-0.6,0.6-0.7
			c0.3-0.2,0.6-0.3,1-0.3c0,0,0,0,0.1,0h0.1v1.4c-0.1,0-0.2,0-0.2,0C119.9,7.7,119.9,7.7,119.8,7.7z"/>
	</g>
	<g>
		<path d="M59,29.2h-2.1V18.5h3.2l1.9,8.4l1.9-8.4h3.2v10.7h-2.1V22c0-0.2,0-0.5,0-0.9s0-0.7,0-0.9l-2,9H61l-2-9c0,0.2,0,0.5,0,0.9
			s0,0.7,0,0.9V29.2z"/>
		<path d="M69.4,22.2c0.5-0.7,1.5-1,2.8-1c0.9,0,1.6,0.2,2.3,0.5c0.7,0.3,1,1,1,1.9v3.6c0,0.3,0,0.6,0,0.9c0,0.3,0.1,0.5,0.1,0.6
			c0.1,0.1,0.2,0.2,0.3,0.2v0.3h-2.2c-0.1-0.2-0.1-0.3-0.1-0.4c0-0.1,0-0.3-0.1-0.5c-0.3,0.3-0.6,0.6-1,0.8
			c-0.4,0.3-0.9,0.4-1.5,0.4c-0.7,0-1.3-0.2-1.8-0.6s-0.7-1-0.7-1.7c0-1,0.4-1.7,1.1-2.1c0.4-0.2,1-0.4,1.8-0.5l0.7-0.1
			c0.4,0,0.7-0.1,0.8-0.2c0.3-0.1,0.4-0.3,0.4-0.6c0-0.3-0.1-0.5-0.3-0.7s-0.6-0.2-1-0.2c-0.5,0-0.8,0.1-1,0.4
			c-0.1,0.2-0.2,0.4-0.3,0.7h-2C68.9,23.2,69.1,22.6,69.4,22.2z M70.9,27.7c0.2,0.2,0.4,0.2,0.7,0.2c0.4,0,0.9-0.1,1.2-0.4
			c0.4-0.3,0.6-0.7,0.6-1.4v-0.8c-0.1,0.1-0.3,0.1-0.4,0.2s-0.3,0.1-0.5,0.1l-0.5,0.1c-0.4,0.1-0.7,0.2-0.9,0.3
			c-0.3,0.2-0.5,0.5-0.5,0.9C70.6,27.3,70.7,27.6,70.9,27.7z"/>
		<path d="M84.2,24.1h-2.1c0-0.3-0.1-0.6-0.3-0.8c-0.2-0.3-0.6-0.5-1.1-0.5c-0.7,0-1.2,0.3-1.4,1c-0.1,0.4-0.2,0.9-0.2,1.5
			c0,0.6,0.1,1,0.2,1.4c0.2,0.7,0.7,1,1.4,1c0.5,0,0.8-0.1,1-0.4c0.2-0.3,0.3-0.6,0.4-1h2.1c0,0.6-0.3,1.2-0.7,1.8
			c-0.6,0.9-1.6,1.4-2.9,1.4s-2.2-0.4-2.8-1.1c-0.6-0.8-0.9-1.7-0.9-2.9c0-1.4,0.3-2.4,1-3.2c0.7-0.8,1.6-1.1,2.7-1.1
			c1,0,1.8,0.2,2.4,0.7C83.7,22.2,84.1,23,84.2,24.1z"/>
		<path d="M94.6,29.5c-1.5,0-2.7-0.4-3.5-1.2c-1.1-1-1.6-2.5-1.6-4.4c0-2,0.5-3.4,1.6-4.4c0.8-0.8,2-1.2,3.5-1.2
			c1.5,0,2.7,0.4,3.5,1.2c1.1,1,1.6,2.4,1.6,4.4c0,1.9-0.5,3.4-1.6,4.4C97.3,29.1,96.2,29.5,94.6,29.5z M96.7,26.6
			c0.5-0.7,0.8-1.6,0.8-2.8c0-1.2-0.3-2.1-0.8-2.8c-0.5-0.7-1.2-1-2.1-1c-0.9,0-1.6,0.3-2.1,1c-0.5,0.7-0.8,1.6-0.8,2.8
			c0,1.2,0.3,2.1,0.8,2.8c0.5,0.7,1.2,1,2.1,1C95.5,27.6,96.2,27.3,96.7,26.6z"/>
		<path d="M105.3,27.7c0.5,0,1-0.1,1.3-0.2c0.6-0.2,0.9-0.6,0.9-1.2c0-0.4-0.2-0.6-0.5-0.8c-0.3-0.2-0.8-0.4-1.5-0.5l-1.1-0.3
			c-1.1-0.3-1.9-0.5-2.3-0.8c-0.7-0.5-1.1-1.3-1.1-2.3c0-1,0.3-1.8,1-2.4s1.7-0.9,3.1-0.9c1.1,0,2.1,0.3,2.9,0.9
			c0.8,0.6,1.2,1.5,1.2,2.6h-2.1c0-0.6-0.3-1.1-0.8-1.4c-0.3-0.2-0.8-0.3-1.3-0.3c-0.6,0-1,0.1-1.4,0.3c-0.3,0.2-0.5,0.6-0.5,1
			c0,0.4,0.2,0.7,0.5,0.9c0.2,0.1,0.7,0.3,1.4,0.4l1.8,0.4c0.8,0.2,1.4,0.5,1.8,0.8c0.6,0.5,1,1.2,1,2.2c0,1-0.4,1.8-1.1,2.4
			c-0.7,0.6-1.8,1-3.2,1c-1.4,0-2.5-0.3-3.3-1c-0.8-0.6-1.2-1.5-1.2-2.6h2.1c0.1,0.5,0.2,0.9,0.4,1.1
			C103.8,27.4,104.4,27.7,105.3,27.7z"/>
	</g>
</g>
</svg>
