<svg width="69" height="10" viewBox="0 0 69 10" fill="none" xmlns="http://www.w3.org/2000/svg">
<g clip-path="url(#clip0_509_835)">
<path d="M11.436 7.8842L9.53817 9.86336C9.49747 9.90607 9.44713 9.94045 9.39251 9.96441C9.33682 9.98836 9.27791 9.99982 9.21686 9.99982H0.220356C0.177516 9.99982 0.135746 9.98732 0.099332 9.96441C0.0629176 9.94149 0.0350712 9.9092 0.017935 9.87066C0.000798811 9.83211 -0.00455625 9.79045 0.00294084 9.74878C0.0104379 9.70711 0.0297162 9.66961 0.0586335 9.63836L1.95433 7.6592C1.99502 7.61649 2.04536 7.58211 2.09998 7.55815C2.15568 7.5342 2.21458 7.52274 2.27563 7.52274H11.2721C11.315 7.52274 11.3578 7.53315 11.3942 7.55607C11.4306 7.57899 11.4596 7.61128 11.4767 7.64982C11.4938 7.68836 11.4992 7.73107 11.4917 7.77274C11.4842 7.81441 11.4649 7.85295 11.4349 7.88315L11.436 7.8842ZM9.53817 3.89774C9.49747 3.85503 9.44713 3.82065 9.39251 3.79774C9.33682 3.77378 9.27791 3.76232 9.21686 3.76128H0.220356C0.177516 3.76128 0.135746 3.77378 0.099332 3.7967C0.0629176 3.81961 0.0350712 3.8519 0.017935 3.89045C0.000798811 3.92899 -0.00455625 3.97065 0.00294084 4.01232C0.0104379 4.05399 0.0297162 4.09149 0.0586335 4.12274L1.95433 6.10295C1.99502 6.14565 2.04536 6.18003 2.09998 6.20295C2.15568 6.2269 2.21458 6.23836 2.27563 6.2394H11.2721C11.315 6.2394 11.3567 6.2269 11.3921 6.20399C11.4274 6.18107 11.4564 6.14878 11.4724 6.11024C11.4896 6.0717 11.4949 6.03003 11.4874 5.98836C11.4799 5.94774 11.4606 5.9092 11.4317 5.87899L9.5371 3.89878L9.53817 3.89774ZM0.220356 2.47586H9.21686C9.27684 2.47586 9.33682 2.46336 9.39251 2.44045C9.4482 2.41649 9.49747 2.38315 9.53817 2.3394L11.436 0.360238C11.466 0.330029 11.4853 0.291488 11.4928 0.249821C11.5003 0.208154 11.4949 0.165446 11.4778 0.126904C11.4606 0.0883627 11.4317 0.056071 11.3953 0.0331544C11.3589 0.0102377 11.316 -0.00122063 11.2732 -0.000178961H2.27563C2.21565 -0.000178961 2.15568 0.012321 2.09998 0.0352377C2.04429 0.059196 1.99502 0.0925294 1.95433 0.136279L0.0586335 2.11545C0.0297162 2.14565 0.0104379 2.1842 0.00294084 2.22586C-0.00455625 2.26649 0.000798811 2.3092 0.017935 2.34774C0.0350712 2.38628 0.0629176 2.41857 0.099332 2.44149C0.135746 2.4644 0.177516 2.4769 0.220356 2.4769V2.47586Z" fill="url(#paint0_linear_509_835)"/>
<path d="M22.4045 4.22917H17.5914V2.6875H23.6555V1.14583H17.5753C17.3675 1.14479 17.1619 1.18333 16.9691 1.25938C16.7763 1.33542 16.6018 1.44792 16.454 1.59063C16.3062 1.73229 16.1884 1.90208 16.108 2.0875C16.0277 2.27396 15.9849 2.47396 15.9849 2.67604V4.23854C15.9849 4.44062 16.0277 4.64063 16.108 4.82708C16.1884 5.01354 16.3062 5.18333 16.454 5.325C16.6018 5.46771 16.7763 5.58021 16.9691 5.65625C17.1619 5.73229 17.3675 5.77188 17.5753 5.77083H22.3949V7.3125H16.0995V8.85417H22.4045C22.6123 8.85521 22.8179 8.81667 23.0107 8.74062C23.2035 8.66458 23.3781 8.55208 23.5259 8.40937C23.6737 8.26771 23.7915 8.09792 23.8718 7.9125C23.9521 7.72604 23.995 7.52604 23.995 7.32396V5.76146C23.995 5.55938 23.9521 5.35937 23.8718 5.17292C23.7915 4.98646 23.6737 4.81667 23.5259 4.675C23.3781 4.53229 23.2035 4.41979 23.0107 4.34375C22.8179 4.26771 22.6123 4.22812 22.4045 4.22917Z" fill="white"/>
<path d="M31.7288 1.14583H26.8975C26.6897 1.14375 26.483 1.18229 26.2902 1.25833C26.0974 1.33437 25.9218 1.44687 25.774 1.58854C25.6262 1.73021 25.5084 1.9 25.427 2.08646C25.3466 2.27292 25.3038 2.47292 25.3027 2.67604V7.32396C25.3027 7.52604 25.3456 7.72604 25.427 7.91354C25.5073 8.1 25.6251 8.26875 25.774 8.41146C25.9218 8.55312 26.0974 8.66562 26.2902 8.74167C26.483 8.81771 26.6897 8.85625 26.8975 8.85417H31.7288C31.9366 8.85521 32.1422 8.81667 32.335 8.74062C32.5278 8.66458 32.7024 8.55208 32.8502 8.40937C32.998 8.26771 33.1158 8.09792 33.1961 7.9125C33.2764 7.72604 33.3182 7.52604 33.3193 7.32396V2.67604C33.3182 2.47396 33.2764 2.27396 33.1961 2.0875C33.1158 1.90104 32.998 1.73229 32.8502 1.59062C32.7024 1.44896 32.5278 1.33646 32.335 1.25937C32.1422 1.18333 31.9366 1.14479 31.7288 1.14583ZM31.717 7.3125H26.9093V2.6875H31.7149L31.717 7.3125Z" fill="white"/>
<path d="M48.6508 1.14581H43.9384C43.7306 1.14477 43.5249 1.18331 43.3322 1.25935C43.1394 1.33539 42.9648 1.44789 42.817 1.5906C42.6692 1.73227 42.5514 1.90206 42.4711 2.08748C42.3907 2.27394 42.349 2.47394 42.3479 2.67602V8.85414H43.9544V6.32185H48.6455V8.85414H50.252V2.67602C50.2509 2.47289 50.2081 2.27289 50.1277 2.08539C50.0463 1.89894 49.9285 1.72914 49.7797 1.58644C49.6308 1.44373 49.4541 1.33227 49.2613 1.25623C49.0674 1.18019 48.8607 1.14269 48.6519 1.14581H48.6508ZM48.639 4.78019H43.948V2.68748H48.639V4.78019Z" fill="white"/>
<path d="M67.4095 1.14583H62.697C62.4892 1.14479 62.2836 1.18333 62.0908 1.25938C61.898 1.33542 61.7234 1.44792 61.5756 1.59063C61.4278 1.73229 61.31 1.90208 61.2297 2.0875C61.1494 2.27396 61.1065 2.47396 61.1055 2.67604V8.85417H62.712V6.32188H67.3923V8.85417H68.9988V2.67604C68.9978 2.47396 68.956 2.27396 68.8746 2.0875C68.7943 1.90104 68.6765 1.73229 68.5287 1.59063C68.3809 1.44896 68.2063 1.33646 68.0135 1.25938C67.8207 1.18333 67.6151 1.14479 67.4073 1.14583H67.4095ZM67.3934 4.78021H62.7024V2.6875H67.3934V4.78021Z" fill="white"/>
<path d="M58.0757 7.31248H57.4331L55.1358 1.79165C55.0576 1.60102 54.9216 1.43748 54.747 1.3229C54.5725 1.20831 54.3658 1.14581 54.1548 1.14581H52.7292C52.5911 1.14581 52.4529 1.17081 52.3255 1.22185C52.197 1.2729 52.0802 1.3479 51.9817 1.44269C51.8831 1.53748 51.805 1.64998 51.7514 1.77394C51.6979 1.8979 51.67 2.03123 51.6689 2.16665V8.85415H53.2755V2.68748H53.9181L56.2143 8.20831C56.2947 8.3979 56.4307 8.56144 56.6063 8.67498C56.782 8.78956 56.9887 8.84998 57.1997 8.84998H58.6252C58.7633 8.84998 58.9015 8.82498 59.0289 8.77394C59.1575 8.7229 59.2742 8.6479 59.3727 8.55311C59.4713 8.45831 59.5495 8.34581 59.603 8.22186C59.6566 8.0979 59.6844 7.96456 59.6855 7.82915V1.14581H58.0757V7.31248Z" fill="white"/>
<path d="M36.3448 1.14581H34.7383V7.32394C34.7383 7.52602 34.7811 7.72706 34.8625 7.91352C34.9439 8.09998 35.0617 8.26977 35.2095 8.41144C35.3573 8.5531 35.533 8.6656 35.7268 8.74165C35.9196 8.81769 36.1263 8.85623 36.3341 8.85415H41.1536V7.31248H36.3448V1.14581Z" fill="white"/>
</g>
<defs>
<linearGradient id="paint0_linear_509_835" x1="0.970065" y1="10.2384" x2="10.1112" y2="-0.357571" gradientUnits="userSpaceOnUse">
<stop offset="0.08" stop-color="#9945FF"/>
<stop offset="0.3" stop-color="#8752F3"/>
<stop offset="0.5" stop-color="#5497D5"/>
<stop offset="0.6" stop-color="#43B4CA"/>
<stop offset="0.72" stop-color="#28E0B9"/>
<stop offset="0.97" stop-color="#19FB9B"/>
</linearGradient>
<clipPath id="clip0_509_835">
<rect width="69" height="10" fill="white"/>
</clipPath>
</defs>
</svg>
