<svg width="40" height="40" viewBox="0 0 40 40" fill="none" xmlns="http://www.w3.org/2000/svg">
<g clip-path="url(#clip0_114_589)">
<path d="M13.9167 33.3333C26.3 33.3333 33.0667 23.0833 33.0667 14.1833C33.0667 13.9 33.0667 13.6 33.05 13.3167C34.3667 12.3667 35.5 11.1833 36.4 9.83335C35.2 10.3667 33.9 10.7333 32.5333 10.9C33.9167 10.0667 34.9833 8.75002 35.5 7.18335C34.2 7.95002 32.7667 8.51668 31.2333 8.81668C30 7.50002 28.25 6.68335 26.3167 6.68335C22.6 6.68335 19.5833 9.70002 19.5833 13.4167C19.5833 13.95 19.65 14.4667 19.75 14.95C14.15 14.6667 9.2 11.9833 5.88333 7.91668C5.3 8.91668 4.96667 10.0667 4.96667 11.3C4.96667 13.6333 6.15 15.7 7.96667 16.9C6.86667 16.8667 5.83333 16.5667 4.91667 16.05C4.91667 16.0833 4.91667 16.1 4.91667 16.1333C4.91667 19.4 7.23333 22.1167 10.3167 22.7333C9.75 22.8833 9.15 22.9667 8.55 22.9667C8.11667 22.9667 7.7 22.9167 7.28333 22.85C8.13333 25.5167 10.6333 27.4667 13.5667 27.5333C11.2667 29.3333 8.36666 30.4167 5.2 30.4167C4.65 30.4167 4.11667 30.3833 3.6 30.3167C6.58333 32.2333 10.1167 33.3333 13.9167 33.3333Z" fill="white"/>
</g>
<defs>
<clipPath id="clip0_114_589">
<rect width="40" height="40" fill="white"/>
</clipPath>
</defs>
</svg>
