<?xml version="1.0" encoding="utf-8"?>
<!-- Generator: Adobe Illustrator 26.3.1, SVG Export Plug-In . SVG Version: 6.00 Build 0)  -->
<svg version="1.1" id="레이어_1" xmlns="http://www.w3.org/2000/svg" xmlns:xlink="http://www.w3.org/1999/xlink" x="0px"
	 y="0px" viewBox="0 0 144 38" style="enable-background:new 0 0 144 38;" xml:space="preserve">
<style type="text/css">
	.st0{fill:#231F20;}
</style>
<g>
	<g>
		<path d="M61.9,11.8h-3.1V4.5h3.1c0.5,0,0.8,0.1,1.1,0.2c0.5,0.2,0.9,0.5,1.2,0.9c0.3,0.4,0.4,0.8,0.5,1.2c0.1,0.4,0.1,0.8,0.1,1.2
			c0,1-0.2,1.8-0.6,2.5C63.8,11.4,63,11.8,61.9,11.8z M63,6.4c-0.2-0.4-0.7-0.6-1.4-0.6h-1.4v4.8h1.4c0.7,0,1.2-0.4,1.5-1.1
			c0.2-0.4,0.2-0.9,0.2-1.4C63.4,7.4,63.3,6.8,63,6.4z"/>
		<path d="M70.5,7.1c0.5,0.6,0.7,1.2,0.7,2c0,0.8-0.2,1.5-0.7,2C70,11.7,69.3,12,68.4,12c-0.9,0-1.6-0.3-2.1-0.8
			c-0.5-0.6-0.7-1.2-0.7-2c0-0.8,0.2-1.5,0.7-2c0.5-0.6,1.1-0.9,2.1-0.9C69.3,6.3,70,6.5,70.5,7.1z M68.4,7.4c-0.4,0-0.7,0.1-1,0.4
			c-0.2,0.3-0.3,0.7-0.3,1.2c0,0.5,0.1,1,0.3,1.3c0.2,0.3,0.5,0.4,1,0.4c0.4,0,0.7-0.1,0.9-0.4c0.2-0.3,0.3-0.7,0.3-1.3
			c0-0.5-0.1-1-0.3-1.2C69.1,7.6,68.8,7.4,68.4,7.4z"/>
		<path d="M76.2,11.8l-0.8-3.9l-0.9,3.9h-1.5l-1.5-5.4h1.5l0.8,3.9l0.8-3.9h1.4l0.8,3.9l0.8-3.9h1.5l-1.6,5.4H76.2z"/>
		<path d="M82.6,7.5c-0.5,0-0.8,0.2-1,0.6c-0.1,0.2-0.1,0.5-0.1,0.8v2.9H80V6.4h1.4v0.8c0.2-0.3,0.4-0.5,0.5-0.6
			c0.3-0.2,0.7-0.3,1.1-0.3c0.6,0,1,0.1,1.4,0.4c0.4,0.3,0.5,0.8,0.5,1.4v3.6h-1.4V8.5c0-0.3,0-0.5-0.1-0.7
			C83.2,7.6,82.9,7.5,82.6,7.5z"/>
		<path d="M86.2,4.5h1.4v7.3h-1.4V4.5z"/>
		<path d="M93.5,7.1c0.5,0.6,0.7,1.2,0.7,2c0,0.8-0.2,1.5-0.7,2C93,11.7,92.4,12,91.4,12c-0.9,0-1.6-0.3-2.1-0.8
			c-0.5-0.6-0.7-1.2-0.7-2c0-0.8,0.2-1.5,0.7-2c0.5-0.6,1.1-0.9,2.1-0.9C92.4,6.3,93,6.5,93.5,7.1z M91.4,7.4c-0.4,0-0.7,0.1-1,0.4
			c-0.2,0.3-0.3,0.7-0.3,1.2c0,0.5,0.1,1,0.3,1.3c0.2,0.3,0.5,0.4,1,0.4c0.4,0,0.7-0.1,0.9-0.4c0.2-0.3,0.3-0.7,0.3-1.3
			c0-0.5-0.1-1-0.3-1.2C92.2,7.6,91.8,7.4,91.4,7.4z"/>
		<path d="M95.4,7c0.4-0.5,1-0.7,1.9-0.7c0.6,0,1.1,0.1,1.6,0.4c0.5,0.2,0.7,0.7,0.7,1.3v2.5c0,0.2,0,0.4,0,0.6c0,0.2,0,0.3,0.1,0.4
			c0,0.1,0.1,0.1,0.2,0.2v0.2h-1.5c0-0.1-0.1-0.2-0.1-0.3c0-0.1,0-0.2,0-0.3c-0.2,0.2-0.4,0.4-0.7,0.5c-0.3,0.2-0.6,0.3-1,0.3
			c-0.5,0-0.9-0.1-1.2-0.4c-0.3-0.3-0.5-0.7-0.5-1.2c0-0.7,0.3-1.1,0.8-1.4c0.3-0.2,0.7-0.3,1.2-0.3l0.5-0.1c0.3,0,0.4-0.1,0.6-0.1
			c0.2-0.1,0.3-0.2,0.3-0.4c0-0.2-0.1-0.4-0.2-0.5c-0.2-0.1-0.4-0.1-0.7-0.1c-0.3,0-0.6,0.1-0.7,0.2c-0.1,0.1-0.2,0.3-0.2,0.5H95
			C95,7.7,95.2,7.3,95.4,7z M96.4,10.8c0.1,0.1,0.3,0.2,0.5,0.2c0.3,0,0.6-0.1,0.8-0.3c0.3-0.2,0.4-0.5,0.4-1V9.2
			c-0.1,0.1-0.2,0.1-0.3,0.1c-0.1,0-0.2,0.1-0.4,0.1l-0.3,0.1c-0.3,0.1-0.5,0.1-0.6,0.2c-0.2,0.1-0.3,0.3-0.3,0.6
			C96.2,10.5,96.3,10.7,96.4,10.8z"/>
		<path d="M105.7,4.5v7.3h-1.4v-0.7c-0.2,0.3-0.4,0.6-0.7,0.7c-0.3,0.1-0.6,0.2-1,0.2c-0.6,0-1.2-0.3-1.6-0.8
			c-0.4-0.5-0.6-1.2-0.6-2c0-0.9,0.2-1.6,0.6-2.2c0.4-0.5,1-0.8,1.7-0.8c0.3,0,0.6,0.1,0.9,0.2c0.3,0.1,0.5,0.3,0.6,0.6V4.5H105.7z
			 M101.9,9.2c0,0.5,0.1,0.9,0.3,1.2c0.2,0.3,0.5,0.5,0.9,0.5c0.4,0,0.7-0.1,0.9-0.4c0.2-0.3,0.3-0.7,0.3-1.2c0-0.7-0.2-1.1-0.5-1.4
			c-0.2-0.2-0.4-0.3-0.7-0.3c-0.4,0-0.7,0.2-0.9,0.5C102,8.3,101.9,8.7,101.9,9.2z"/>
		<path d="M112.3,4.5v1.1c-0.1,0-0.2,0-0.4,0c-0.2,0-0.3,0-0.4,0.1c-0.1,0.1-0.1,0.2-0.1,0.3v0.5h0.9v1h-0.9v4.3H110V7.5h-0.8v-1
			h0.8V6.1c0-0.6,0.1-1,0.3-1.2c0.2-0.3,0.7-0.5,1.5-0.5c0.1,0,0.2,0,0.2,0S112.2,4.5,112.3,4.5z"/>
		<path d="M117.7,7.1c0.5,0.6,0.7,1.2,0.7,2c0,0.8-0.2,1.5-0.7,2c-0.5,0.6-1.1,0.8-2.1,0.8s-1.6-0.3-2.1-0.8c-0.5-0.6-0.7-1.2-0.7-2
			c0-0.8,0.2-1.5,0.7-2c0.5-0.6,1.1-0.9,2.1-0.9S117.2,6.5,117.7,7.1z M115.6,7.4c-0.4,0-0.7,0.1-1,0.4c-0.2,0.3-0.3,0.7-0.3,1.2
			c0,0.5,0.1,1,0.3,1.3c0.2,0.3,0.5,0.4,1,0.4c0.4,0,0.7-0.1,0.9-0.4c0.2-0.3,0.3-0.7,0.3-1.3c0-0.5-0.1-1-0.3-1.2
			C116.3,7.6,116,7.4,115.6,7.4z"/>
		<path d="M122.1,7.7c-0.6,0-0.9,0.2-1.1,0.6c-0.1,0.2-0.2,0.5-0.2,1v2.6h-1.4V6.4h1.3v0.9c0.2-0.4,0.4-0.6,0.6-0.7
			c0.3-0.2,0.6-0.3,1-0.3c0,0,0,0,0.1,0c0,0,0.1,0,0.1,0v1.4c-0.1,0-0.2,0-0.2,0C122.2,7.7,122.1,7.7,122.1,7.7z"/>
	</g>
	<g>
		<path d="M69.7,18.5h2.3l-3,10.7h-2.1L65.5,23l-0.4-2.1L64.8,23l-1.3,6.2h-2.1l-3-10.7h2.4l1.4,6.1l0.3,1.7l0.3-1.7l1.2-6.1h2.4
			l1.3,6.1l0.3,1.7l0.3-1.6L69.7,18.5z"/>
		<path d="M75.1,18.5v1.9H73v-1.9H75.1z M75.1,21.3v7.9H73v-7.9H75.1z"/>
		<path d="M80.8,22.8c-0.7,0-1.2,0.3-1.4,0.9c-0.1,0.3-0.2,0.7-0.2,1.2v4.3h-2.1v-7.9h2v1.2c0.3-0.4,0.5-0.7,0.8-0.9
			c0.4-0.3,1-0.5,1.6-0.5c0.8,0,1.5,0.2,2,0.6c0.5,0.4,0.8,1.1,0.8,2.1v5.3h-2.1v-4.8c0-0.4-0.1-0.7-0.2-1
			C81.8,23,81.4,22.8,80.8,22.8z"/>
		<path d="M93.3,18.6v10.6h-2v-1.1c-0.3,0.5-0.6,0.8-1,1s-0.8,0.3-1.4,0.3c-0.9,0-1.7-0.4-2.3-1.1c-0.6-0.7-0.9-1.7-0.9-2.9
			c0-1.3,0.3-2.4,0.9-3.2c0.6-0.8,1.4-1.2,2.5-1.2c0.5,0,0.9,0.1,1.3,0.3s0.7,0.5,0.9,0.9v-3.8H93.3z M87.8,25.3
			c0,0.7,0.1,1.3,0.4,1.7c0.3,0.4,0.7,0.7,1.3,0.7s1-0.2,1.3-0.7s0.5-1,0.5-1.7c0-1-0.2-1.7-0.7-2.1c-0.3-0.3-0.6-0.4-1-0.4
			c-0.6,0-1,0.2-1.3,0.7C87.9,24.1,87.8,24.6,87.8,25.3z"/>
		<path d="M101.8,22.3c0.7,0.8,1,1.8,1,3c0,1.2-0.3,2.1-1,3s-1.7,1.2-3,1.2s-2.4-0.4-3-1.2c-0.7-0.8-1-1.8-1-3c0-1.1,0.3-2.1,1-3
			c0.7-0.8,1.7-1.3,3-1.3S101.1,21.5,101.8,22.3z M98.7,22.8c-0.6,0-1.1,0.2-1.4,0.6c-0.3,0.4-0.5,1-0.5,1.8s0.2,1.4,0.5,1.8
			c0.3,0.4,0.8,0.6,1.4,0.6s1.1-0.2,1.4-0.6c0.3-0.4,0.5-1,0.5-1.8s-0.2-1.4-0.5-1.8C99.8,23,99.3,22.8,98.7,22.8z"/>
		<path d="M110.2,29.2l-1.2-5.7l-1.3,5.7h-2.1l-2.2-7.9h2.2l1.2,5.7l1.1-5.7h2.1l1.2,5.7l1.2-5.7h2.1l-2.3,7.9H110.2z"/>
		<path d="M121.2,21.7c0.6,0.4,1,1.1,1.1,2h-2.1c0-0.3-0.1-0.5-0.2-0.6c-0.2-0.3-0.6-0.4-1.2-0.4c-0.4,0-0.8,0.1-1,0.2
			s-0.3,0.3-0.3,0.5c0,0.2,0.1,0.4,0.3,0.5c0.2,0.1,0.9,0.3,2.1,0.6c0.8,0.2,1.4,0.5,1.8,0.9c0.4,0.4,0.6,0.9,0.6,1.5
			c0,0.8-0.3,1.4-0.9,1.9s-1.5,0.7-2.7,0.7c-1.2,0-2.2-0.3-2.7-0.8c-0.6-0.5-0.9-1.2-0.9-2h2.1c0,0.4,0.1,0.6,0.3,0.8
			c0.3,0.3,0.7,0.4,1.4,0.4c0.4,0,0.7-0.1,1-0.2c0.2-0.1,0.4-0.3,0.4-0.5c0-0.2-0.1-0.4-0.3-0.5c-0.2-0.1-0.9-0.3-2.1-0.6
			c-0.9-0.2-1.5-0.5-1.9-0.8c-0.4-0.3-0.5-0.8-0.5-1.4c0-0.7,0.3-1.4,0.9-1.9c0.6-0.5,1.4-0.8,2.4-0.8
			C119.8,21.1,120.6,21.3,121.2,21.7z"/>
	</g>
	<g>
		<polyline class="st0" points="21,8.5 32.9,6.9 32.9,18.4 21,18.4 		"/>
		<polyline class="st0" points="34.4,6.6 50.2,4.3 50.2,18.3 34.4,18.3 		"/>
		<polyline class="st0" points="21,19.7 32.9,19.7 32.9,31.3 21,29.6 		"/>
		<polyline class="st0" points="34.4,19.8 50.2,19.8 50.2,33.7 34.4,31.4 		"/>
	</g>
</g>
</svg>
