<svg width="40" height="40" viewBox="0 0 40 40" fill="none" xmlns="http://www.w3.org/2000/svg">
<g clip-path="url(#clip0_114_590)">
<path d="M36.2 11.8667C35.8167 10.4167 34.6667 9.26668 33.2167 8.88335C30.5833 8.18335 20.0167 8.18335 20.0167 8.18335C20.0167 8.18335 9.45 8.18335 6.81667 8.88335C5.36667 9.26668 4.21667 10.4167 3.83333 11.8667C3.13333 14.5 3.13333 20 3.13333 20C3.13333 20 3.13333 25.5 3.83333 28.1333C4.21667 29.5833 5.36667 30.7334 6.81667 31.1167C9.45 31.8167 20.0167 31.8167 20.0167 31.8167C20.0167 31.8167 30.5833 31.8167 33.2167 31.1167C34.6667 30.7334 35.8167 29.5833 36.2 28.1333C36.9 25.5 36.9 20 36.9 20C36.9 20 36.9 14.5 36.2 11.8667ZM16.6333 25.0667V14.9334L25.4167 20L16.6333 25.0667Z" fill="white"/>
</g>
<defs>
<clipPath id="clip0_114_590">
<rect width="40" height="40" fill="white"/>
</clipPath>
</defs>
</svg>
